<mxfile host="app.diagrams.net" agent="Mozilla/5.0 (Windows NT 10.0; Win64; x64) AppleWebKit/537.36 (KHTML, like Gecko) Chrome/131.0.0.0 Safari/537.36 OPR/116.0.0.0" version="26.0.16">
  <diagram id="C5RBs43oDa-KdzZeNtuy" name="Page-1">
    <mxGraphModel dx="1548" dy="875" grid="1" gridSize="10" guides="1" tooltips="1" connect="1" arrows="1" fold="1" page="1" pageScale="1" pageWidth="827" pageHeight="1169" math="0" shadow="0">
      <root>
        <mxCell id="WIyWlLk6GJQsqaUBKTNV-0" />
        <mxCell id="WIyWlLk6GJQsqaUBKTNV-1" parent="WIyWlLk6GJQsqaUBKTNV-0" />
        <mxCell id="xY51GRG9Lmi13XA8OcFe-0" value="Queue" style="rounded=0;whiteSpace=wrap;html=1;" vertex="1" parent="WIyWlLk6GJQsqaUBKTNV-1">
          <mxGeometry x="160" y="130" width="120" height="60" as="geometry" />
        </mxCell>
        <mxCell id="xY51GRG9Lmi13XA8OcFe-1" value="" style="endArrow=none;dashed=1;html=1;rounded=0;entryX=0.5;entryY=1;entryDx=0;entryDy=0;" edge="1" parent="WIyWlLk6GJQsqaUBKTNV-1" source="xY51GRG9Lmi13XA8OcFe-2" target="xY51GRG9Lmi13XA8OcFe-0">
          <mxGeometry width="50" height="50" relative="1" as="geometry">
            <mxPoint x="220" y="681.6000366210938" as="sourcePoint" />
            <mxPoint x="440" y="270" as="targetPoint" />
          </mxGeometry>
        </mxCell>
        <mxCell id="xY51GRG9Lmi13XA8OcFe-3" value="" style="endArrow=none;dashed=1;html=1;rounded=0;entryX=0.5;entryY=1;entryDx=0;entryDy=0;" edge="1" parent="WIyWlLk6GJQsqaUBKTNV-1" target="xY51GRG9Lmi13XA8OcFe-2">
          <mxGeometry width="50" height="50" relative="1" as="geometry">
            <mxPoint x="220" y="681.6000366210938" as="sourcePoint" />
            <mxPoint x="220" y="190" as="targetPoint" />
          </mxGeometry>
        </mxCell>
        <mxCell id="xY51GRG9Lmi13XA8OcFe-2" value="" style="rounded=0;whiteSpace=wrap;html=1;" vertex="1" parent="WIyWlLk6GJQsqaUBKTNV-1">
          <mxGeometry x="210" y="230" width="20" height="380" as="geometry" />
        </mxCell>
        <mxCell id="xY51GRG9Lmi13XA8OcFe-4" value="" style="endArrow=classic;html=1;rounded=0;" edge="1" parent="WIyWlLk6GJQsqaUBKTNV-1">
          <mxGeometry relative="1" as="geometry">
            <mxPoint x="60" y="280" as="sourcePoint" />
            <mxPoint x="210" y="280" as="targetPoint" />
          </mxGeometry>
        </mxCell>
        <mxCell id="xY51GRG9Lmi13XA8OcFe-5" value="QueueEntry()" style="edgeLabel;resizable=0;html=1;;align=center;verticalAlign=middle;" connectable="0" vertex="1" parent="xY51GRG9Lmi13XA8OcFe-4">
          <mxGeometry relative="1" as="geometry" />
        </mxCell>
        <mxCell id="xY51GRG9Lmi13XA8OcFe-8" value="Matchmaking" style="rounded=0;whiteSpace=wrap;html=1;" vertex="1" parent="WIyWlLk6GJQsqaUBKTNV-1">
          <mxGeometry x="320" y="130" width="120" height="60" as="geometry" />
        </mxCell>
        <mxCell id="xY51GRG9Lmi13XA8OcFe-9" value="" style="endArrow=none;dashed=1;html=1;rounded=0;entryX=0.5;entryY=1;entryDx=0;entryDy=0;" edge="1" parent="WIyWlLk6GJQsqaUBKTNV-1" source="xY51GRG9Lmi13XA8OcFe-10" target="xY51GRG9Lmi13XA8OcFe-8">
          <mxGeometry width="50" height="50" relative="1" as="geometry">
            <mxPoint x="380" y="680" as="sourcePoint" />
            <mxPoint x="470" y="230" as="targetPoint" />
          </mxGeometry>
        </mxCell>
        <mxCell id="xY51GRG9Lmi13XA8OcFe-11" value="" style="endArrow=none;dashed=1;html=1;rounded=0;entryX=0.5;entryY=1;entryDx=0;entryDy=0;" edge="1" parent="WIyWlLk6GJQsqaUBKTNV-1" target="xY51GRG9Lmi13XA8OcFe-10">
          <mxGeometry width="50" height="50" relative="1" as="geometry">
            <mxPoint x="380" y="680" as="sourcePoint" />
            <mxPoint x="380" y="190" as="targetPoint" />
          </mxGeometry>
        </mxCell>
        <mxCell id="xY51GRG9Lmi13XA8OcFe-10" value="" style="rounded=0;whiteSpace=wrap;html=1;" vertex="1" parent="WIyWlLk6GJQsqaUBKTNV-1">
          <mxGeometry x="370" y="280" width="20" height="320" as="geometry" />
        </mxCell>
        <mxCell id="xY51GRG9Lmi13XA8OcFe-12" value="" style="endArrow=classic;html=1;rounded=0;entryX=-0.078;entryY=0.027;entryDx=0;entryDy=0;entryPerimeter=0;exitX=0.959;exitY=0.155;exitDx=0;exitDy=0;exitPerimeter=0;" edge="1" parent="WIyWlLk6GJQsqaUBKTNV-1" source="xY51GRG9Lmi13XA8OcFe-2" target="xY51GRG9Lmi13XA8OcFe-10">
          <mxGeometry relative="1" as="geometry">
            <mxPoint x="240" y="289" as="sourcePoint" />
            <mxPoint x="320" y="290" as="targetPoint" />
          </mxGeometry>
        </mxCell>
        <mxCell id="xY51GRG9Lmi13XA8OcFe-13" value="Matchmaking()" style="edgeLabel;resizable=0;html=1;;align=center;verticalAlign=middle;" connectable="0" vertex="1" parent="xY51GRG9Lmi13XA8OcFe-12">
          <mxGeometry relative="1" as="geometry" />
        </mxCell>
        <mxCell id="xY51GRG9Lmi13XA8OcFe-14" value="" style="endArrow=classic;html=1;rounded=0;entryX=-0.078;entryY=0.027;entryDx=0;entryDy=0;entryPerimeter=0;exitX=0.959;exitY=0.155;exitDx=0;exitDy=0;exitPerimeter=0;" edge="1" parent="WIyWlLk6GJQsqaUBKTNV-1">
          <mxGeometry relative="1" as="geometry">
            <mxPoint x="230" y="310" as="sourcePoint" />
            <mxPoint x="369" y="310" as="targetPoint" />
          </mxGeometry>
        </mxCell>
        <mxCell id="xY51GRG9Lmi13XA8OcFe-15" value="AddPlayer()" style="edgeLabel;resizable=0;html=1;;align=center;verticalAlign=middle;" connectable="0" vertex="1" parent="xY51GRG9Lmi13XA8OcFe-14">
          <mxGeometry relative="1" as="geometry" />
        </mxCell>
        <mxCell id="xY51GRG9Lmi13XA8OcFe-18" value="ServerGame" style="rounded=0;whiteSpace=wrap;html=1;" vertex="1" parent="WIyWlLk6GJQsqaUBKTNV-1">
          <mxGeometry x="480" y="130" width="120" height="60" as="geometry" />
        </mxCell>
        <mxCell id="xY51GRG9Lmi13XA8OcFe-19" value="" style="endArrow=none;dashed=1;html=1;rounded=0;entryX=0.5;entryY=1;entryDx=0;entryDy=0;" edge="1" parent="WIyWlLk6GJQsqaUBKTNV-1" source="xY51GRG9Lmi13XA8OcFe-20" target="xY51GRG9Lmi13XA8OcFe-18">
          <mxGeometry width="50" height="50" relative="1" as="geometry">
            <mxPoint x="540" y="680" as="sourcePoint" />
            <mxPoint x="630" y="230" as="targetPoint" />
          </mxGeometry>
        </mxCell>
        <mxCell id="xY51GRG9Lmi13XA8OcFe-20" value="" style="rounded=0;whiteSpace=wrap;html=1;" vertex="1" parent="WIyWlLk6GJQsqaUBKTNV-1">
          <mxGeometry x="530" y="300" width="20" height="290" as="geometry" />
        </mxCell>
        <mxCell id="xY51GRG9Lmi13XA8OcFe-21" value="" style="endArrow=none;dashed=1;html=1;rounded=0;entryX=0.5;entryY=1;entryDx=0;entryDy=0;" edge="1" parent="WIyWlLk6GJQsqaUBKTNV-1" target="xY51GRG9Lmi13XA8OcFe-20">
          <mxGeometry width="50" height="50" relative="1" as="geometry">
            <mxPoint x="539.6" y="680" as="sourcePoint" />
            <mxPoint x="539.6" y="600" as="targetPoint" />
          </mxGeometry>
        </mxCell>
        <mxCell id="xY51GRG9Lmi13XA8OcFe-22" value="" style="endArrow=classic;html=1;rounded=0;entryX=-0.078;entryY=0.027;entryDx=0;entryDy=0;entryPerimeter=0;exitX=0.959;exitY=0.155;exitDx=0;exitDy=0;exitPerimeter=0;" edge="1" parent="WIyWlLk6GJQsqaUBKTNV-1">
          <mxGeometry relative="1" as="geometry">
            <mxPoint x="390" y="330" as="sourcePoint" />
            <mxPoint x="529" y="330" as="targetPoint" />
          </mxGeometry>
        </mxCell>
        <mxCell id="xY51GRG9Lmi13XA8OcFe-23" value="joinQueue()" style="edgeLabel;resizable=0;html=1;;align=center;verticalAlign=middle;" connectable="0" vertex="1" parent="xY51GRG9Lmi13XA8OcFe-22">
          <mxGeometry relative="1" as="geometry" />
        </mxCell>
        <mxCell id="xY51GRG9Lmi13XA8OcFe-24" value="" style="endArrow=classic;html=1;rounded=0;entryX=1;entryY=0.313;entryDx=0;entryDy=0;entryPerimeter=0;exitX=0.002;exitY=0.272;exitDx=0;exitDy=0;exitPerimeter=0;" edge="1" parent="WIyWlLk6GJQsqaUBKTNV-1">
          <mxGeometry relative="1" as="geometry">
            <mxPoint x="530" y="579.9999999999999" as="sourcePoint" />
            <mxPoint x="389.96" y="581.2800000000001" as="targetPoint" />
          </mxGeometry>
        </mxCell>
        <mxCell id="xY51GRG9Lmi13XA8OcFe-25" value="leaveQueue()" style="edgeLabel;resizable=0;html=1;;align=center;verticalAlign=middle;" connectable="0" vertex="1" parent="xY51GRG9Lmi13XA8OcFe-24">
          <mxGeometry relative="1" as="geometry">
            <mxPoint as="offset" />
          </mxGeometry>
        </mxCell>
        <mxCell id="xY51GRG9Lmi13XA8OcFe-28" value="ServerGameInstance" style="rounded=0;whiteSpace=wrap;html=1;" vertex="1" parent="WIyWlLk6GJQsqaUBKTNV-1">
          <mxGeometry x="640" y="130" width="120" height="60" as="geometry" />
        </mxCell>
        <mxCell id="xY51GRG9Lmi13XA8OcFe-29" value="" style="endArrow=none;dashed=1;html=1;rounded=0;entryX=0.5;entryY=1;entryDx=0;entryDy=0;" edge="1" parent="WIyWlLk6GJQsqaUBKTNV-1" source="xY51GRG9Lmi13XA8OcFe-30" target="xY51GRG9Lmi13XA8OcFe-28">
          <mxGeometry width="50" height="50" relative="1" as="geometry">
            <mxPoint x="700" y="680" as="sourcePoint" />
            <mxPoint x="790" y="230" as="targetPoint" />
          </mxGeometry>
        </mxCell>
        <mxCell id="xY51GRG9Lmi13XA8OcFe-30" value="" style="rounded=0;whiteSpace=wrap;html=1;" vertex="1" parent="WIyWlLk6GJQsqaUBKTNV-1">
          <mxGeometry x="690" y="300" width="20" height="280" as="geometry" />
        </mxCell>
        <mxCell id="xY51GRG9Lmi13XA8OcFe-31" value="" style="endArrow=none;dashed=1;html=1;rounded=0;entryX=0.5;entryY=1;entryDx=0;entryDy=0;" edge="1" parent="WIyWlLk6GJQsqaUBKTNV-1" target="xY51GRG9Lmi13XA8OcFe-30">
          <mxGeometry width="50" height="50" relative="1" as="geometry">
            <mxPoint x="699.6" y="680" as="sourcePoint" />
            <mxPoint x="699.6" y="600" as="targetPoint" />
          </mxGeometry>
        </mxCell>
        <mxCell id="xY51GRG9Lmi13XA8OcFe-32" value="" style="endArrow=classic;html=1;rounded=0;" edge="1" parent="WIyWlLk6GJQsqaUBKTNV-1">
          <mxGeometry relative="1" as="geometry">
            <mxPoint x="550" y="360" as="sourcePoint" />
            <mxPoint x="690" y="360" as="targetPoint" />
          </mxGeometry>
        </mxCell>
        <mxCell id="xY51GRG9Lmi13XA8OcFe-33" value="tryRejoin()" style="edgeLabel;resizable=0;html=1;;align=center;verticalAlign=middle;" connectable="0" vertex="1" parent="xY51GRG9Lmi13XA8OcFe-32">
          <mxGeometry relative="1" as="geometry" />
        </mxCell>
        <mxCell id="xY51GRG9Lmi13XA8OcFe-34" value="" style="endArrow=classic;html=1;rounded=0;entryX=1;entryY=0.313;entryDx=0;entryDy=0;entryPerimeter=0;exitX=0.002;exitY=0.272;exitDx=0;exitDy=0;exitPerimeter=0;" edge="1" parent="WIyWlLk6GJQsqaUBKTNV-1">
          <mxGeometry relative="1" as="geometry">
            <mxPoint x="690.04" y="569.9999999999999" as="sourcePoint" />
            <mxPoint x="550" y="571.2800000000001" as="targetPoint" />
          </mxGeometry>
        </mxCell>
        <mxCell id="xY51GRG9Lmi13XA8OcFe-35" value="finishGame()" style="edgeLabel;resizable=0;html=1;;align=center;verticalAlign=middle;" connectable="0" vertex="1" parent="xY51GRG9Lmi13XA8OcFe-34">
          <mxGeometry relative="1" as="geometry">
            <mxPoint as="offset" />
          </mxGeometry>
        </mxCell>
      </root>
    </mxGraphModel>
  </diagram>
</mxfile>
